<svg width="24" height="24" viewBox="0 0 24 24" fill="none" xmlns="http://www.w3.org/2000/svg">
<path fill-rule="evenodd" clip-rule="evenodd" d="M13.797 16.989H12.292C10.764 16.989 9.489 15.752 9.453 14.207V7.76C9.453 7.345 9.789 7.01 10.203 7.01C10.617 7.01 10.953 7.345 10.953 7.76V9.229H13.795C14.209 9.229 14.545 9.565 14.545 9.979C14.545 10.393 14.209 10.729 13.795 10.729H10.953V14.189C10.97 14.903 11.574 15.489 12.305 15.489H13.797C14.211 15.489 14.547 15.825 14.547 16.239C14.547 16.653 14.211 16.989 13.797 16.989ZM16.217 2.5H7.782C4.623 2.5 2.5 4.722 2.5 8.03V15.969C2.5 19.277 4.623 21.5 7.782 21.5H16.216C19.376 21.5 21.5 19.277 21.5 15.969V8.03C21.5 4.722 19.377 2.5 16.217 2.5Z" fill="black"/>
</svg>
