<svg width="24" height="24" viewBox="0 0 24 24" fill="none" xmlns="http://www.w3.org/2000/svg">
<path fill-rule="evenodd" clip-rule="evenodd" d="M19.343 14.8164C19.102 14.5874 18.84 14.3374 18.564 14.0614C17.281 12.7814 16.174 13.2174 15.287 13.5664C14.222 13.9854 13.217 14.3814 11.379 12.5414C9.54302 10.7094 9.93802 9.70237 10.354 8.63637C10.702 7.74737 11.136 6.63937 9.85502 5.36137C9.57202 5.07937 9.31902 4.81237 9.08502 4.56637C8.14602 3.57737 7.46602 2.86237 6.51002 2.84937H6.48402C5.66302 2.84937 4.80202 3.37437 3.52202 4.65137C3.50802 4.66537 3.43902 4.73437 3.42702 4.75137C3.14102 5.03337 2.38002 5.78437 2.37502 7.23937C2.36802 9.50736 4.19802 12.4924 7.81602 16.1084C11.425 19.7164 14.404 21.5454 16.67 21.5454H16.695C18.149 21.5374 18.893 20.7754 19.173 20.4894L19.267 20.3984C20.559 19.1064 21.081 18.2404 21.072 17.4104C21.059 16.4494 20.339 15.7644 19.343 14.8164Z" fill="black"/>
<path fill-rule="evenodd" clip-rule="evenodd" d="M20.8753 5.29483H18.7803V3.20483C18.7803 2.79083 18.4443 2.45483 18.0303 2.45483C17.6163 2.45483 17.2803 2.79083 17.2803 3.20483V5.29483H15.1863C14.7713 5.29483 14.4363 5.63083 14.4363 6.04483C14.4363 6.45883 14.7713 6.79483 15.1863 6.79483H17.2803V8.89483C17.2803 9.30883 17.6163 9.64483 18.0303 9.64483C18.4443 9.64483 18.7803 9.30883 18.7803 8.89483V6.79483H20.8753C21.2893 6.79483 21.6253 6.45883 21.6253 6.04483C21.6253 5.63083 21.2893 5.29483 20.8753 5.29483Z" fill="black"/>
</svg>
